<svg t="1714122005112" class="icon" viewBox="0 0 1086 1024" version="1.1" xmlns="http://www.w3.org/2000/svg" p-id="1075" xmlns:xlink="http://www.w3.org/1999/xlink" width="212.109375" height="200"><path d="M321.215 391.8l455.225-2.046-218.918 550.362z m52.172-199.48l346.789 3.069 61.378 134.01-450.11-3.07z m-99.23 129.918L0 207.664 147.309 98.206 323.26 189.25zM0 274.158l259.836 115.596 279.273 546.27zM841.91 388.73l243.469-125.826-512.512 670.05z m-5.115-67.516l-68.54-141.171 156.516-86.953 135.033 113.55zM368.272 124.803l-59.333-15.344-111.504-62.402L328.375 0H755.98l129.918 54.218-124.803 60.355-41.942 10.23H368.272z" fill="#65a15f" p-id="1076"></path>
</svg>